<svg xmlns="http://www.w3.org/2000/svg" version="1.1" xmlns:xlink="http://www.w3.org/1999/xlink" xmlns:svgjs="http://svgjs.dev/svgjs" viewBox="0 0 800 800"><defs><linearGradient x1="50%" y1="0%" x2="50%" y2="100%" id="ssscribble-grad"><stop stop-color="hsl(206, 75%, 49%)" stop-opacity="1" offset="0%"></stop><stop stop-color="hsl(331, 90%, 56%)" stop-opacity="1" offset="100%"></stop></linearGradient></defs><g fill="none" stroke-width="1.5" stroke="url(#ssscribble-grad)" stroke-linecap="round"><path d="M937.42 294.66C1040.84 327.52 1093.58 387.25 1084.74 474.24 1020.74 562.62 917.05 671.95 800.22 777.96 691.6 840.1 611.58 838.44 568.35 748.69 563.56 621.75 588.41 513.63 629.46 525.92 683.73 685.09 732.31 908.75 767.2 1021.31 798.45 811.09 766.67 913.75 722.45 1055.79 688.71 816.09 654.22 649.13 621.36 810.63 588.5 1069.7 558.83 1041.06 530.59 777.16 499.9 633.57 466 782.9 424.68 1007 375.2 1035.25 312.57 830.92 234.93 612.92 149.4 566 53.64 700.5 -43.69 865.64 -127.81 940.79 -191.62 868.72 -221.05 713.86 -212.03 537.5 -161.49 415.51 -76.95 358.35 58.28 363.16 118.54 410.96 -14.57 376.96 -135.37 344.1 -234.01 282.23 -284.96 197.54 -280.71 119.67 -220.43 39.25 -122.43 -12.2 -6.49 -12 103.33 55.84 189.56 181.55 244.48 285.78 265.28 310.71 259.13 192.52 228.84 -15.68 190.03 -189.16 153.52 -176.5 91.44 -53.82 138.1 106.72 184.86 -141.26 217.72 -302.85 254.08 -129.3 294.93 123.11 337.95 119.89 389.26 -113.53 451.04 -263 518.03 -151.5 597.1 96.89 685.79 231.9 772.94 153.6 858.93 -31.08 932.29 -147.21 981.51 -116.47 999.67 38.79 978.96 216.38 926.96 356.8 846.59 412.6 754.74 407.42 680.82 358.38 639.26 308.82 647.68 282.41 711.32 257.38 816.61 261.81 937.42 294.66Q937.42 294.66 937.42 294.66" opacity="0.99"></path><path d="M903.42 574.58C1000.71 605.1 1055.21 651.45 1056.99 703.51 1009.85 743.74 923.38 765.6 817.95 746.21 710.55 692.54 619.84 596.41 556.3 491.47 523.62 447.29 519.88 498.27 536.78 661.4 572.4 855.54 612.02 975.93 646.95 921.59 693 662.45 712.12 950.29 690.29 981.57 670.7 742.73 644.96 615.37 614.45 776.63 583.93 1023.75 550.1 1032.49 512.13 803.69 472.3 609.62 425.03 663.53 368.44 875.76 307.14 1018.24 234.67 940.8 152.7 728.51 70.74 547.42 -12.68 524.7 -88.29 633.22 -145.18 789.82 -177.62 879.33 -176.71 868.07 -144.95 770.56 -81.6 633.94 3.43 507.02 86.49 392.9 155.59 317.08 190.95 269.13 177.4 233.31 116.71 204.85 19.42 174.34 -92.9 143.82 -187.65 112.71 -243.43 90.97 -253.27 81.37 -212.9 101.66 -134.55 162.9 -32.66 236.93 73.76 323.31 168.23 373.82 242.91 338.07 290.34 204.78 312.32 8.19 310.36 -140.33 293.67 -153.84 271.31 -4.54 228.52 201.04 185.62 -208.97 193.95 -62.39 204.51 154.65 225.24 139.81 255.75 -107.26 286.26 -268.61 325.12 -135.13 372.1 115.49 420.17 190.17 477.98 19.34 545.06 -183.7 613.04 -207.13 688.19 -24.96 765.56 188.53 834.94 274.69 895.44 190.51 937.4 36.37 955.41 -86.78 944.16 -93.99 901.25 -2.8 838.56 149.15 759.49 295.54 679.97 402.1 623.98 474.38 600.98 508.04 622.59 525.37 690.15 530.85 791.09 544.08 903.42 574.58Q903.42 574.58 903.42 574.58" opacity="0.72"></path><path d="M869.42 578.37C960.35 606.54 1015.59 616.89 1026.41 605.19 994.92 587.7 926.17 542.22 835.17 474.93 734.82 421.74 640.92 387.88 564.5 412.09 509.86 508.51 479.97 669.13 471.05 840.61 481.89 932.85 503.01 895.69 526.75 736.47 556.31 578.54 579.7 544.75 593.57 695.68 607.43 968.96 580.33 628.15 542.62 742.63 514.45 976.21 478.54 1017.27 435.15 832.39 390.84 613.95 337.64 574.76 275.95 725.79 213.27 920.93 143.49 978.59 70.51 865 3.37 661.76 -58.18 506.23 -105.94 468.68 -133.94 545.6 -137.44 669.7 -112.12 769.83 -65.03 822.58 3.59 805.89 83.3 745.1 153.66 652.99 206.37 560.32 226.99 484.86 205.3 409.28 144.35 356.76 53.42 328.58 -50.36 300.41 -140.44 297.92 -199.26 320.38 -220.84 342.72 -198.82 384.14 -140.69 427.45 -56.53 439.45 39.77 409.77 133.93 313.63 219.03 170.11 285.41 5.56 331.04 -108.3 361.2 -46.64 344.89 231.18 328.41 -26.01 314.37 -186.17 333.66 183.62 370.3 -73.26 398.47 -232.36 436.53 -137.63 483.29 96.81 530.04 232.18 585.09 144.73 646.04 -56.14 704.49 -186.46 764.54 -127.43 820.47 59.81 865.34 248.37 896.8 318.94 908.04 263.62 899.33 129.06 866.34 8.87 810.57 -44.13 745.74 -24.93 674.69 55.3 611.18 157.3 573.69 273.41 567.7 370.13 600.15 440.73 669.85 505.55 765.63 550.21 869.42 578.37Q869.42 578.37 869.42 578.37" opacity="0.74"></path><path d="M835.42 300.04C947.26 328.09 949.92 310.71 849.63 318.98 761.02 362.49 670.87 448.52 589.45 579.51 520.76 718.85 470.59 840.87 438.65 889.67 423.98 839.18 422.22 702.88 427.8 552.33 442.15 496.56 456.15 584.3 465.64 782.58 478.84 960 461.2 580.51 427.62 708.63 401.8 927.18 366.9 994.77 324.04 858.66 281.17 641.74 230.65 527.71 174.49 589.53 120.25 767.46 63.73 913.74 9.59 931.72 -35.77 816.59 -71.09 639.66 -90.25 492.18 -92.15 420.64 -72.59 439.09 -30.79 509.69 23.73 608.33 90.72 686.1 160.41 726.99 216.13 742.19 252.73 726.62 260.17 696.54 231.99 657.71 171.76 621.57 87.42 595.75 -7.75 569.93 -92.44 555.65 -152.56 545.79 -183.43 527.18 -177.61 495.79 -139.11 435.86 -74.75 350.24 6.34 229.96 92.66 91.51 178.69 -18.88 254.6 -74.42 316.09 -36.76 363.78 76.86 396.28 223.18 416.8 311.46 426.4 266.63 430.4 97.21 433.33 -99.64 433.2 -130.78 459.77 215.61 493.8 -39.27 519.62 -194.15 553.61 -135.61 594.13 70.89 633.87 244.73 678.38 244.29 724.49 93.4 766.3 -85.96 804.82 -150.57 835.02 -67.93 854.29 109.49 858.86 276.41 845.01 360.75 817.36 345.8 772.06 260.85 712.92 161.3 653.48 70.1 595.54 26.59 550.1 27.83 530.53 61.14 539.41 114.42 580.23 168.25 650.32 228.27 740.25 274.22 835.42 300.04Q835.42 300.04 835.42 300.04" opacity="0.55"></path><path d="M801.46 179.78C878.99 203.25 932.76 232.4 956.69 271.68 951.49 317.41 916.64 383.64 859.15 474.66 785.59 572.45 704.95 682.47 626.01 780.74 551.94 834.36 489.57 827.24 440.87 746 404.8 626.03 381.21 506.01 366.91 455.13 361.53 517.88 359.93 678.4 358.36 859.08 360.24 948.47 358.25 887.64 350.16 708.45 342.72 547.33 327.76 525.98 304.29 674.64 280.82 876.8 249.95 964.61 213.12 878.06 176.94 685.1 136.23 525.36 93.67 495.71 54.57 602.29 17.51 762.36 -13.28 876.38 -35.15 892.98 -45.26 804.68 -39.95 663.1 -22.02 513.19 12.52 408.86 62.14 363.1 116.65 370.5 176.23 411.49 232.58 459.39 272.87 515.84 294.37 554.28 290.5 570.37 257.52 583.12 198.99 576.8 121.46 553.33 34.94 529.85 -43.7 490.34 -103.5 433.32 -141.1 372.97 -148.87 291.84 -128.42 194.71 -84.28 106.13 -21.56 26.49 51.1 -17.08 129.63 -7.5 205.47 63.12 273.45 182.27 334.22 293.09 383.53 353.55 421.97 312.52 451.92 174.05 474.3 -7.05 492.13 -130.84 505.5 -118.4 518.45 27.98 533.45 211.87 547.34 289.37 565.5 196.8 588.97 -5.35 612.44 -154.01 640.11 -127.9 670.49 42.26 699.75 230.51 729.5 304.7 756.81 232.52 787.81 -0.69 792.1 40.5 754.3 265.16 717.08 377.17 669.07 417.99 614.99 400.55 566.75 338.45 525.08 267.08 498.14 209.97 494.89 159.63 516.01 136.1 562.66 134.63 631.5 139.61 714.91 156.3 801.42 179.77Q801.46 179.78 801.46 179.78" opacity="0.90"></path><path d="M767.07 407.68C837.65 428.8 889.4 468.8 917.47 524.95 922.53 579.41 902.6 644.58 862.08 709.55 805.45 756.39 738.58 780.22 668.36 764.02 597.1 711.05 531.27 619.62 474 511.86 424.02 435.3 384.02 416.14 352.94 482.76 328.93 619.3 310.75 781.88 295.86 895.55 284.55 899.68 273.18 786.89 259.74 614.86 247.19 493.89 230.79 499.91 209.67 640.53 188.55 825.11 163.7 926.54 136.4 886.51 110.01 734 82.95 561.68 57.64 461.35 35.93 474.04 19.32 579.82 10.77 713.8 9.29 823.16 18.96 856.88 41.25 814.49 70.84 712.85 111.62 588.87 160.88 475.77 209.11 380.79 257.03 321.76 298.17 292 323.21 283.84 331.11 286.85 317.9 288.48 281.68 294.7 225.65 289.41 155.07 268.28 77.23 247.17 5.23 211.21 -52.61 165.16 -103.44 102.97 -60.79 59.04 16.35 133.55 81.04 214.09 148.51 307.75 213.75 381.71 277.45 396.44 334.24 337.7 382.92 206.36 426.6 50.38 462.92 -74.35 493.12 -102.56 519.91 -17.75 543.27 142.53 564.76 286.91 585.24 318.83 605.75 213.18 626.87 28.62 648 -112.04 668.73 -113.85 688.09 15.24 725.48 209.76 695.74 -47.23 646.5 79.1 608.95 214.55 566.52 336.31 523.83 421.84 478.15 476.08 481.95 429.6 546.95 401.61 612.95 385.3 689.23 386.55 767.07 407.68Q767.07 407.68 767.07 407.68" opacity="0.52"></path><path d="M733.45 623.49C796.77 642.26 845.41 662.97 875.72 681.58 888.52 695.44 881.13 698.36 856.08 682.54 816.5 653.41 765.64 600.3 708.54 526.89 646.79 457.27 585.61 395.71 528.37 367.28 473.72 392.27 425.61 474.71 384.54 604.75 347.78 741.57 316.99 846.61 291.08 873.72 267.9 809.61 247.4 674.45 228.36 527.8 210.11 447.86 191.81 475.91 173.03 606.73 154.26 772.66 135.89 881.07 118.72 881.2 102.35 778.05 88.69 623.38 79.33 487.51 72.7 418.32 72.56 436.13 80.39 518.36 92.51 635.51 113.66 737.68 143.7 796.5 176.33 806.84 215.24 767.34 257.44 697.36 294.99 605.45 329.01 514.58 354.83 436.93 366.12 364.47 362.82 310.06 342.77 271.16 305.22 236.11 252.77 210.33 189.45 191.56 120.35 172.78 55.43 161.88 0.79 161.52 -42.74 165.01 -68.65 185.26 -76.28 225.18 -67.94 270.29 -43.43 330.23 -6.52 393.2 40.52 434.24 93.66 446.78 148.7 411.83 206.12 328.4 260.95 203.96 311.02 67.27 359.48 -34.5 402.25 -69.15 439.1 -13.73 474.11 108.36 504.32 252.35 530.16 348.25 555.35 340.87 577.34 228.66 596.12 62.73 614.9 -68.08 629.58 -92.33 639.81 -5.14 649.38 148.74 653.33 294.59 650.87 372.47 646.56 359.12 634.71 270.92 615.2 153.65 594.06 43.16 566.2 -17 533.38 -17.39 502.96 35.65 472.08 124.17 444.58 222.72 427.22 325.08 419.54 409.11 424.96 470.78 446.34 519.14 482.94 550.38 533.71 571.94 595.59 588.74 664.31 604.7 733.41 623.48Q733.45 623.49 733.45 623.49" opacity="0.08"></path><path d="M699.41 485.63C802.83 518.49 851.56 491.44 840.71 412.4 782.49 351.62 690.93 319.85 592.89 415.18 491.82 617.25 406.34 814.15 341.68 790.68 282.88 567.89 237.77 411.13 204.9 572.72 163.29 818.04 181.21 412.95 256.31 603.72 311.28 739.96 367.98 745.74 402.12 676.55 388.88 565.5 326.83 477.15 223.41 444.29 102.61 411.43 9.35 437.17 -34.33 491.27 -32.02 503.51 17.95 446.44 93.1 267.14 185.34 63.12 274.78 -31.38 347.85 119.63 419.35 341.65 473.16 355.74 506.02 96.72 543.28 20.17 497.93 318.62 429.68 78.6 397.61 26.34 382.48 109.39 404.25 227.12 472.03 363.1 578.61 452.77 699.41 485.63Q699.41 485.63 699.41 485.63" opacity="0.72"></path><path d="M665.46 212.39C756.37 240.56 807.81 243.33 814.96 252.61 786.26 300.02 726.38 413.56 653.61 594.06 570.9 748.61 493.64 796.54 431.18 660.79 370.1 460.97 323.97 379.62 295.8 538.64 267.64 772.22 260.1 812.5 272.37 645.73 286.01 428.14 319.32 335.79 365.11 380.59 400.96 510.62 430.97 618.69 439.02 663.19 411.22 676.8 348.37 655.14 257.46 626.97 153.67 598.81 68.43 566.8 17.7 504.38 -2.32 411.06 15.62 259.04 58.72 92.1 119.73 10.37 186.64 72.83 246.1 269.76 307.68 415.9 355.6 364.26 383.76 130.73 411.94 -28.36 417.69 64.34 404.92 284.81 394.28 441.23 371.33 423.19 347.23 305.56 341.04 161.98 352.96 92.39 393.63 93.79 465 133.32 561.64 184.22 665.42 212.38Q665.46 212.39 665.46 212.39" opacity="0.99"></path><path d="M631.46 235.76C708.98 259.23 759.32 314.2 778.56 404.65 773.36 502.31 742.69 626.86 697.57 730.34 641.23 756.74 583.31 678.2 533.15 510.91 481.66 372.24 441.72 355.99 418.25 504.64 394.78 706.8 389.99 792.14 400.81 717.36 410.29 541.95 431.58 379.29 457.15 297.55 471.51 297.47 477.28 348.46 465.28 397 428.83 453.66 368.98 474.06 291.46 450.59 204.94 427.12 130.5 361.99 78.85 264.66 45.32 175.44 39.22 87.83 54.57 57.13 84.18 108.1 123.84 245.85 163.59 404.05 206.73 461.65 242.98 366.86 266.45 164.73 289.93 16.01 298.4 41.73 295.94 197.58 296.86 382.1 293.83 485.55 294.99 489.93 310.39 417.21 341.38 329.29 392.11 272.3 460.96 222.53 544.91 212.28 631.42 235.75Q631.46 235.76 631.46 235.76" opacity="0.69"></path><path d="M597.28 518.82C660.62 537.59 706.34 583.43 731.68 641.23 742.42 684.85 734.79 710.05 714.38 686.77 685.12 618.22 650.73 499.95 617.96 373.53 583.09 309.13 554.1 339.82 535.32 470.59 513.15 689.06 514.85 592.4 522.04 404.97 517.84 305.24 505.56 250.2 481.05 225.89 441.95 218.66 388.62 212.92 325.28 194.14 256.18 175.36 194.73 145.33 147.55 120.02 109.36 111.79 89.07 137.51 84.91 212.63 89.62 309.39 104.86 421.61 125.05 494.3 148.06 477.18 170.86 364.55 189.64 198.59 208.42 67.82 221.4 44.75 230.93 122.9 243.28 263.09 257.35 401.27 277.24 494.44 306.02 542.33 346.22 546.44 398.18 535.36 459.12 510.1 528.18 500.04 597.28 518.82Q597.28 518.82 597.28 518.82" opacity="0.60"></path><path d="M563.46 613.97C654.37 642.14 698.14 612.29 697.64 480.15 676.65 343.83 639.34 277.62 611.18 436.64 583.01 670.23 569.31 708.49 553.39 590.48 516.97 410.84 450.37 291.44 359.46 263.27 255.66 235.1 180.18 303.51 148.9 446.23 133.88 527.32 148.21 466.23 176.38 232.64 204.54 73.62 241.21 162.66 293.15 335.9 361.35 504.96 459.66 585.8 563.46 613.97Q563.46 613.97 563.46 613.97" opacity="0.08"></path><path d="M529.42 370.66C644.36 408.22 660.8 246.62 623.25 402.63 585.69 680.4 508.36 586.14 393.42 548.58 255.96 511.03 193.29 544.4 230.85 266.63 268.4 110.62 391.96 333.11 529.42 370.66Q529.42 370.66 529.42 370.66" opacity="0.41"></path></g></svg>